<svg x="0px" y="0px" viewBox="0 0 217 215.5" style="enable-background:new 0 0 217 215.5;">
	<path d="M205.4,207.6H104.3V106.5h101.1V207.6z M106.8,205.1h96.1V109h-96.1V205.1z"/>
	<g>
		<path d="M155.8,7.9c-27.5,0-49.9,22.3-49.9,49.9s22.3,49.9,49.9,49.9s49.9-22.3,49.9-49.9S183.3,7.9,155.8,7.9z M155.8,85.7
			c-15.4,0-27.9-12.5-27.9-27.9c0-15.4,12.5-27.9,27.9-27.9s27.9,12.5,27.9,27.9C183.7,73.2,171.2,85.7,155.8,85.7z"/>
		<circle fill="transparent" cx="155.8" cy="57.7" r="27.9"/>
	</g>
	<path d="M106.3,109.1H5.4v-1.3c0-53.1,43.7-96.9,99.5-99.6l1.3-0.1V109.1z M7.9,106.6h95.8V10.8C50.3,14,8.6,55.8,7.9,106.6z"/>
	<path d="M105.9,186.2c-44.1-1-79.5-34.1-79.5-74.9c0-1.2,0-2.3,0.1-3.5H5.7c0,0.5,0,1,0,1.5c0,53.4,44.6,96.8,100.3,98.3V186.2z"/>
</svg>
